<svg width="15" height="14" viewBox="0 0 15 14" fill="none" xmlns="http://www.w3.org/2000/svg">
<path fill-rule="evenodd" clip-rule="evenodd" d="M8.91043 2.03548L7.5 3.52672L6.08957 2.03548C4.95824 0.839283 3.15634 0.839268 2.02501 2.03546C0.8546 3.27298 0.854219 5.30875 2.025 6.54762C2.02508 6.5477 2.02492 6.54754 2.025 6.54762L2.59878 7.15428L7.49994 12.337L12.4011 7.15347L12.975 6.5467C12.975 6.54669 12.975 6.5467 12.975 6.5467C14.1454 5.30917 14.1458 3.27339 12.975 2.03453M13.8116 7.32486L7.5 14L1.18836 7.32579C-0.396119 5.64954 -0.396119 2.93263 1.18836 1.25731C2.70134 -0.34243 5.11195 -0.414603 6.70593 1.04079C6.78124 1.10955 6.85473 1.18172 6.92621 1.25731L7.5 1.86397L8.07379 1.25731C8.14525 1.1817 8.21872 1.10951 8.29401 1.04072C9.88799 -0.415538 12.2986 -0.343383 13.8116 1.25637C15.3961 2.93263 15.3961 5.64954 13.8116 7.32486ZM8.91043 2.03548C10.0417 0.838685 11.8437 0.838615 12.975 2.03453L8.91043 2.03548Z" fill="white"/>
</svg>
