<svg width="28" height="28" viewBox="0 0 28 28" fill="none" xmlns="http://www.w3.org/2000/svg">
<circle cx="14" cy="14" r="14" fill="#808080"/>
<path d="M18.5828 12.9026C18.5828 9.34427 16.6687 8.13385 14.8786 7.86406C14.8786 7.84583 14.8823 7.8276 14.8823 7.80573C14.8823 7.35729 14.4849 7 14 7C13.5151 7 13.1323 7.35729 13.1323 7.80573C13.1323 7.8276 13.1323 7.84583 13.1359 7.86406C11.3422 8.1375 9.41719 9.35156 9.41719 12.9099C9.41719 17.0589 8.38542 17.5036 7 18.6703H21C19.6219 17.5 18.5828 17.0516 18.5828 12.9026Z" fill="white"/>
<path d="M14.006 20.9998C14.9831 20.9998 15.7852 20.2743 15.8909 19.4321H12.1211C12.2232 20.2743 13.0289 20.9998 14.006 20.9998Z" fill="white"/>
</svg>
