<svg width="27" height="16" viewBox="0 0 27 16" fill="none" xmlns="http://www.w3.org/2000/svg">
<path fill-rule="evenodd" clip-rule="evenodd" d="M2.0332 0C0.910156 0 0 0.895508 0 2V14C0 15.1045 0.910156 16 2.0332 16H24.9668C26.0898 16 27 15.1045 27 14V2C27 0.895508 26.0898 0 24.9668 0H2.0332ZM2.61328 12.2783H4.75586V3.71387H2.61328V12.2783ZM10.877 12.2783H12.7051V3.71387H9.80273L9.30469 7.75684L8.5918 3.71387H5.83203V12.2783H7.75586V7.46973L8.66602 12.2783H9.99023L10.877 7.46973V12.2783ZM13.8398 3.71387V12.2783L16.2461 12.2705C17.6152 12.2705 18.0723 12.123 18.457 11.8291C18.8398 11.5342 19.0273 11.1143 19.0273 10.584V5.40039C19.0273 4.82617 18.8242 4.40625 18.4199 4.12598C18.0137 3.85352 17.668 3.71387 16.2383 3.71387H13.8398ZM16.7266 5.45898V10.4814C16.7266 10.8457 16.3555 10.8408 16.0117 10.8359L15.9004 10.835V5.08398L15.9961 5.08301C16.3398 5.08008 16.7266 5.0752 16.7266 5.45898ZM21.4863 12.2852C21.4863 12.2852 21.623 11.7695 21.7734 11.8359L21.8125 11.8516C22.0273 11.9365 22.7207 12.2119 23.209 12.2119C23.7344 12.2119 23.9531 12.1826 24.2012 12.0713C24.5176 11.8652 24.6758 11.5928 24.6758 11.2393V6.25391C24.7285 5.5332 23.9453 5.10547 23.3516 5.07617C22.75 5.05371 22.1328 5.42969 21.916 5.67285V3.71387H19.7207V12.2852H21.4863ZM22.5098 6.48242V10.7979C22.5098 11.0117 22.4121 11.1582 22.209 11.1582C22.0059 11.1582 21.9004 11.0117 21.9004 10.7979V6.46777C21.9004 6.26953 22.0059 6.16602 22.209 6.16602C22.4121 6.16602 22.5098 6.26953 22.5098 6.48242Z" fill="white"/>
</svg>
