<svg width="111" height="21" viewBox="0 0 111 21" fill="none" xmlns="http://www.w3.org/2000/svg">
<path d="M1 3.84271V1.22461H3.38615V3.84271H1ZM1 19.7625V6.51041H3.38615V19.7625H1Z" fill="#009C7C" stroke="#009C7C" stroke-width="0.5" stroke-miterlimit="10"/>
<path d="M8.29004 19.7625V1.22461H12.027L18.125 16.8705C19.1348 14.2524 20.1406 11.6427 21.1424 9.04134C22.1437 6.44002 23.1499 3.83468 24.1598 1.22461H27.9222V19.7625H25.4223V4.47845C24.4375 7.03016 23.4528 9.57933 22.468 12.1267C21.4833 14.6744 20.5026 17.2195 19.5264 19.7625H16.6859L10.79 4.49085V19.7625H8.29004Z" fill="#009C7C" stroke="#009C7C" stroke-width="0.5" stroke-miterlimit="10"/>
<path d="M32.6498 7.43315C32.6498 5.06453 33.1547 3.39804 34.1649 2.43403C35.1833 1.47842 36.9593 1.00024 39.4928 1.00024H41.7906C44.3408 1.00024 46.1212 1.47404 47.131 2.42127V2.40887C48.1324 3.35646 48.6333 5.03098 48.6333 7.43279V13.5538C48.6333 15.9308 48.1239 17.6014 47.1055 18.5654C46.0957 19.513 44.3238 19.9864 41.7903 19.9864H39.4924C36.9504 19.9864 35.1748 19.5126 34.1646 18.5654C33.1547 17.6097 32.6494 15.9392 32.6494 13.5538V7.43315H32.6498ZM40.0609 3.36886C39.4211 3.36886 38.8804 3.38564 38.4386 3.41883C37.9968 3.45202 37.6496 3.49798 37.397 3.55597C36.9086 3.68071 36.4835 3.897 36.1219 4.20411C35.7935 4.4784 35.5663 4.85226 35.44 5.32605C35.2967 5.82465 35.2254 6.69747 35.2254 7.94415V13.068C35.2254 13.6749 35.2443 14.1983 35.2823 14.6389C35.3203 15.0795 35.3728 15.4242 35.44 15.6737C35.5072 15.89 35.6018 16.0957 35.7241 16.2908C35.846 16.4863 35.9786 16.6505 36.1219 16.7832C36.492 17.0991 36.9171 17.311 37.397 17.419C37.6496 17.4857 37.9968 17.5353 38.4386 17.5685C38.8804 17.6017 39.4211 17.6185 40.0609 17.6185H41.1971C41.8364 17.6185 42.3794 17.6021 42.8256 17.5685C43.2718 17.5353 43.6209 17.4854 43.8735 17.419C44.3785 17.311 44.8077 17.0991 45.1612 16.7832C45.481 16.5009 45.7041 16.1391 45.8305 15.6985C45.8977 15.4574 45.9483 15.1211 45.9819 14.6885C46.0155 14.2563 46.0325 13.7162 46.0325 13.068V7.93175C46.0325 7.292 46.0155 6.75583 45.9819 6.32361C45.9483 5.8914 45.8977 5.55073 45.8305 5.30125C45.6872 4.82745 45.4559 4.4536 45.1361 4.17931C44.9676 4.03816 44.7763 3.91561 44.5617 3.81165C44.3471 3.7077 44.1177 3.62272 43.8735 3.55597C43.6209 3.49798 43.2718 3.45202 42.8256 3.41883C42.3794 3.38564 41.8364 3.36886 41.1971 3.36886H40.0609Z" fill="#009C7C" stroke="#009C7C" stroke-width="0.5" stroke-miterlimit="10"/>
<path d="M50.9229 1.22461H53.6244L59.2806 16.9201C60.2233 14.302 61.17 11.6842 62.1211 9.06614C63.0723 6.44804 64.019 3.83432 64.9616 1.22461H67.6506L60.7703 19.7625H57.8035L50.9229 1.22461Z" fill="#009C7C" stroke="#009C7C" stroke-width="0.5" stroke-miterlimit="10"/>
<path d="M70.6748 19.7625V1.22461H73.1998V19.7625H70.6748Z" fill="#009C7C" stroke="#009C7C" stroke-width="0.5" stroke-miterlimit="10"/>
<path d="M78.2422 19.7625V1.22461H91.5618V3.61839H80.7421V9.04134H91.2589V11.3728H80.7421V17.3818H91.5618V19.7625H78.2422Z" fill="#009C7C" stroke="#009C7C" stroke-width="0.5" stroke-miterlimit="10"/>
<path d="M95.0515 13.3924H97.5766V13.9782C97.5766 14.5183 97.5972 14.9775 97.6393 15.3558C97.6814 15.734 97.7361 16.0437 97.8037 16.2844C97.9467 16.7082 98.1823 17.0201 98.5107 17.2192C98.6536 17.286 98.8324 17.3483 99.047 17.4063C99.2616 17.4647 99.5032 17.5103 99.7732 17.5435C100.093 17.5767 100.568 17.6018 101.199 17.6183C101.831 17.635 102.613 17.6431 103.547 17.6431C104.54 17.6431 105.31 17.5807 105.858 17.4559C106.405 17.3312 106.805 17.1317 107.057 16.8574C107.192 16.7163 107.291 16.4668 107.354 16.1093C107.417 15.7522 107.449 15.2577 107.449 14.6259C107.449 13.3628 107.327 12.5772 107.083 12.2697C106.856 11.9706 106.371 11.7919 105.631 11.7335L100 11.2973C98.2495 11.1646 97.0288 10.7199 96.3392 9.96347C95.9853 9.58961 95.7245 9.09284 95.5561 8.47387C95.3877 7.85491 95.3034 7.11303 95.3034 6.2486C95.3034 5.19304 95.4235 4.32241 95.6632 3.6367C95.9029 2.95099 96.2631 2.3882 96.7429 1.94759C97.147 1.59854 97.6977 1.35343 98.3966 1.21191C98.7331 1.14553 99.194 1.09337 99.7791 1.05617C100.364 1.0186 101.09 1 101.957 1H102.613C104.515 1 105.853 1.09155 106.628 1.27428C107.436 1.4738 108.11 1.79805 108.648 2.24668C109.397 2.8868 109.772 4.03354 109.772 5.68763C109.772 5.92033 109.767 6.13845 109.759 6.34197C109.751 6.54586 109.742 6.69723 109.734 6.79717H107.222V6.11146C107.222 5.48009 107.188 5.00192 107.121 4.67767C107.053 4.35341 106.948 4.1167 106.805 3.96715C106.578 3.75123 106.166 3.60169 105.568 3.51852C104.92 3.41895 103.699 3.36898 101.907 3.36898C100.99 3.36898 100.251 3.41457 99.6912 3.50612C99.1312 3.59767 98.7423 3.73883 98.5233 3.92995C98.094 4.32898 97.8798 5.11025 97.8798 6.27377C97.8798 6.76434 97.9153 7.17577 97.9869 7.50804C98.0582 7.84069 98.1616 8.09819 98.2961 8.28093V8.26852C98.4394 8.43485 98.6474 8.5698 98.9211 8.67375C99.1944 8.7777 99.5416 8.8419 99.9623 8.86706L105.707 9.34086C107.281 9.48238 108.392 9.92262 109.04 10.6623C109.679 11.4188 110 12.6239 110 14.2776C110 14.8761 109.982 15.4039 109.949 15.8609C109.915 16.318 109.852 16.7006 109.759 17.008C109.582 17.6398 109.309 18.1676 108.939 18.5914C108.703 18.8409 108.423 19.063 108.099 19.2585C107.775 19.454 107.415 19.6013 107.02 19.7009C106.624 19.8089 106.083 19.8858 105.397 19.9314C104.711 19.977 103.867 20 102.866 20H101.957C101.106 20 100.38 19.9792 99.7788 19.9376C99.1767 19.896 98.6869 19.8297 98.3083 19.7381C97.9297 19.6466 97.5862 19.5244 97.2792 19.3705C96.9719 19.2169 96.6963 19.0276 96.4522 18.8033H96.4651C95.9768 18.3962 95.6189 17.8455 95.3917 17.1514C95.1645 16.4577 95.0508 15.5826 95.0508 14.5271V13.3924H95.0515Z" fill="#009C7C" stroke="#009C7C" stroke-width="0.5" stroke-miterlimit="10"/>
</svg>
