<svg width="16" height="16" viewBox="0 0 16 16" fill="none" xmlns="http://www.w3.org/2000/svg">
<path d="M14.4466 12.1025C14.3135 12.1094 14.1877 12.1094 14.0546 12.1094C11.902 12.1094 9.87517 11.3244 8.35136 9.89318C6.82755 8.46201 5.99168 6.5584 5.99168 4.53669C5.99168 3.38341 6.26537 2.27182 6.77577 1.26444C7.00508 0.8198 7.27878 0.396005 7.59686 2.1202e-07C7.03467 0.0555799 6.49468 0.166739 5.96949 0.319583C2.50763 1.34781 2.25743e-07 4.38385 2.25743e-07 7.97568C2.25743e-07 12.4082 3.82432 16 8.54369 16C11.1549 16 13.485 14.9023 15.0532 13.1724C15.4082 12.7764 15.7337 12.3456 16 11.8871C15.497 12.0052 14.9792 12.0816 14.4466 12.1025Z" fill="#808080"/>
</svg>
