<svg width="19" height="19" viewBox="0 0 19 19" fill="none" xmlns="http://www.w3.org/2000/svg">
<path fill-rule="evenodd" clip-rule="evenodd" d="M10.2969 4.3457L10.8965 5.73535L11.0723 6.14258L11.1192 6.25293L11.1348 6.29004L11.3653 6.82129L11.9395 6.8877L12.0547 5.89453L11.9492 6.88965L11.9785 6.89258L12.0918 6.90625L12.5156 6.95508L13.961 7.12305L16.8067 7.45508L14.6563 9.50684L13.5821 10.5322L13.2656 10.834L13.1817 10.915L13.1524 10.9424L12.7539 11.3213L12.8633 11.8701L12.8692 11.9004L12.8926 12.0186L12.9785 12.4561L13.2715 13.9492L13.8477 16.8711L11.4395 15.4316L10.1778 14.6768L9.80666 14.4551L9.70705 14.3955L9.67189 14.374L9.15822 14.0674L9.13283 14.083V1.77148L9.16018 1.70801L10.2969 4.3457ZM8.74416 0.202148C8.84377 0.0791016 8.99221 0 9.15822 0C9.38088 0 9.56838 0.139648 9.66018 0.337891L12.0547 5.89453C12.0547 5.89453 15.5215 6.29688 17.834 6.56934C18.043 6.59375 18.2266 6.74023 18.2949 6.96094C18.3633 7.18164 18.2949 7.41309 18.1406 7.56348L13.8418 11.666L15.0176 17.6377C15.0567 17.8535 14.9824 18.082 14.8028 18.2188C14.625 18.3564 14.3946 18.3584 14.209 18.252L9.15822 15.2324C9.15822 15.2324 9.15041 15.2383 9.13283 15.248C8.83791 15.4248 6.0215 17.1104 4.10549 18.251C3.9258 18.3584 3.69533 18.3564 3.51564 18.2188C3.33596 18.082 3.26174 17.8535 3.3008 17.6367L4.47853 11.666L0.179706 7.56055C0.0273627 7.41406 -0.0429498 7.18359 0.0273627 6.96094C0.0957221 6.73926 0.279316 6.59277 0.4883 6.56641L6.2676 5.89453L8.66213 0.337891C8.66213 0.332031 8.66994 0.325195 8.66994 0.319336C8.66994 0.313477 8.6758 0.307617 8.67971 0.301758C8.69728 0.266602 8.71877 0.232422 8.74416 0.202148Z" fill="white"/>
</svg>
