<svg width="16" height="16" viewBox="0 0 16 16" fill="none" xmlns="http://www.w3.org/2000/svg">
<path d="M16 14.6649L11.8898 10.5547C12.7155 9.45261 13.2099 8.08822 13.2099 6.60494C13.2099 2.95713 10.2528 3.81537e-07 6.60494 3.81537e-07C2.95713 3.81537e-07 2.08766e-07 2.95713 2.08766e-07 6.60494C2.08766e-07 10.2528 2.95713 13.2099 6.60494 13.2099C8.08822 13.2099 9.45261 12.7145 10.5547 11.8898L14.6649 16L16 14.6649ZM1.88713 6.604C1.88713 4.00259 4.00354 1.88618 6.60494 1.88618C9.20634 1.88618 11.3228 4.00259 11.3228 6.604C11.3228 9.2054 9.20634 11.3218 6.60494 11.3218C4.00354 11.3218 1.88713 9.2054 1.88713 6.604Z" fill="#808080"/>
</svg>
